<?xml version="1.0" standalone="no"?>
<!DOCTYPE svg PUBLIC "-//W3C//DTD SVG 20010904//EN"
 "http://www.w3.org/TR/2001/REC-SVG-20010904/DTD/svg10.dtd">
<svg version="1.0" xmlns="http://www.w3.org/2000/svg"
 width="829.000000pt" height="829.000000pt" viewBox="0 0 829.000000 829.000000"
 preserveAspectRatio="xMidYMid meet">
<metadata>
Created by potrace 1.14, written by Peter Selinger 2001-2017
</metadata>
<g transform="translate(0.000000,829.000000) scale(0.100000,-0.100000)"
fill="#000000" stroke="none">
<path d="M4092 7666 c-31 -7 -41 -13 -37 -23 3 -8 5 -19 5 -24 0 -6 4 -8 9 -5
5 3 8 -2 7 -12 0 -10 5 -16 14 -14 8 2 12 0 8 -3 -11 -11 11 -47 24 -39 6 4 8
3 4 -4 -3 -6 5 -19 19 -30 14 -11 25 -25 25 -32 0 -6 4 -9 9 -6 4 3 13 -6 20
-20 6 -15 16 -22 23 -18 6 4 8 3 5 -2 -3 -5 8 -25 24 -43 16 -19 29 -38 29
-43 0 -5 5 -6 12 -2 7 4 8 3 4 -4 -4 -6 1 -19 11 -29 22 -23 83 -121 83 -134
0 -5 4 -9 9 -9 5 0 12 -11 15 -25 4 -14 11 -25 17 -25 6 0 7 -4 4 -10 -3 -5
-1 -10 5 -10 6 0 8 -4 5 -10 -3 -5 -1 -10 4 -10 6 0 10 -3 9 -7 -2 -12 53
-123 61 -123 4 0 7 -8 8 -17 1 -10 12 -40 24 -68 12 -27 23 -52 24 -55 1 -3 5
-12 8 -20 6 -14 18 -50 77 -245 10 -33 23 -76 29 -95 l10 -35 -32 40 c-18 22
-47 55 -64 73 -18 18 -33 35 -33 38 0 7 -27 34 -34 34 -3 0 -21 16 -40 36 -21
22 -40 33 -47 28 -7 -4 -10 -3 -6 3 4 5 -6 16 -21 24 -15 8 -33 20 -41 28 -8
7 -27 18 -43 23 -15 6 -28 14 -28 20 0 5 -4 6 -10 3 -5 -3 -10 -1 -10 4 0 6
-6 11 -14 11 -8 0 -16 4 -18 9 -1 5 -9 11 -17 13 -7 2 -25 13 -39 25 -13 13
-28 20 -33 17 -5 -3 -9 0 -9 5 0 6 -7 11 -15 11 -8 0 -15 5 -15 10 0 6 -6 10
-14 10 -7 0 -19 7 -26 15 -7 8 -16 13 -20 10 -5 -3 -10 0 -12 5 -2 6 -13 12
-26 13 -12 0 -22 5 -22 9 0 4 -7 8 -15 8 -8 0 -15 4 -15 8 0 7 -16 11 -57 14
-7 1 -13 5 -13 8 0 4 -19 11 -42 15 -24 4 -50 10 -58 12 -8 2 -29 5 -46 7 -16
1 -34 5 -40 8 -5 3 -26 9 -47 12 -21 3 -48 11 -59 17 -16 8 -19 8 -13 -1 5 -9
1 -9 -16 1 -13 7 -25 12 -26 11 -2 -1 -4 -2 -5 -1 -16 4 -50 10 -83 14 -22 2
-41 5 -42 6 -2 1 -7 2 -12 3 -5 0 -12 4 -15 7 -7 7 -56 -1 -56 -9 0 -13 53
-52 62 -46 7 5 8 2 4 -5 -5 -8 0 -14 13 -18 12 -3 21 -8 21 -12 0 -12 57 -41
65 -33 5 4 5 1 1 -5 -4 -8 -1 -13 7 -13 8 0 18 -7 21 -16 4 -9 9 -14 12 -11 5
5 39 -21 86 -66 10 -10 24 -15 31 -11 7 4 9 4 5 -1 -10 -10 43 -56 55 -48 6 3
7 1 4 -4 -6 -10 31 -51 40 -45 3 2 8 0 11 -4 4 -4 0 -4 -8 1 -8 4 2 -8 24 -28
21 -20 43 -34 49 -30 5 3 7 1 3 -5 -8 -14 22 -44 36 -36 6 4 8 3 5 -3 -7 -11
52 -69 66 -65 4 1 6 -2 3 -7 -7 -11 19 -33 28 -23 4 4 6 0 4 -8 -2 -8 3 -14
10 -13 6 2 12 -2 12 -7 0 -13 -4 -13 -45 4 -19 8 -35 12 -35 9 0 -3 -6 -1 -12
4 -12 10 -34 16 -98 30 -14 4 -42 6 -62 7 -21 1 -38 4 -38 7 0 9 -92 12 -350
12 -239 0 -312 -4 -450 -28 -19 -3 -47 -7 -62 -8 -16 -1 -28 -4 -28 -7 0 -3
-8 -6 -17 -7 -74 -3 -246 -66 -351 -129 -32 -18 -72 -40 -89 -49 -18 -10 -30
-22 -26 -28 3 -5 1 -7 -4 -4 -6 4 -38 -13 -72 -38 -34 -25 -63 -45 -66 -45 -3
0 -13 -8 -24 -17 -10 -10 -33 -29 -52 -43 -18 -14 -60 -51 -94 -83 -33 -32
-60 -57 -60 -55 -1 2 -23 -17 -49 -42 -119 -111 -181 -173 -178 -181 1 -5 -2
-8 -6 -7 -11 4 -112 -99 -112 -113 0 -5 -4 -8 -8 -5 -5 3 -15 -4 -23 -15 -14
-21 -37 -47 -114 -131 -22 -23 -39 -46 -37 -50 1 -5 -2 -7 -7 -5 -12 3 -194
-190 -238 -252 -8 -13 -27 -35 -42 -50 -40 -43 -76 -86 -71 -86 3 -1 -8 -14
-25 -31 -61 -61 -141 -164 -128 -164 4 0 0 -5 -10 -11 -16 -9 -59 -69 -67 -94
-2 -5 -12 -19 -23 -30 -10 -11 -23 -29 -28 -40 -5 -11 -13 -27 -19 -35 -35
-53 -109 -182 -115 -199 -3 -12 -11 -21 -16 -21 -5 0 -9 -9 -9 -21 0 -11 -4
-17 -10 -14 -5 3 -10 1 -10 -6 0 -6 -17 -39 -39 -73 -21 -34 -41 -71 -45 -83
-4 -13 -12 -23 -17 -23 -5 0 -9 -4 -9 -9 0 -5 -13 -38 -29 -73 -28 -62 -55
-133 -57 -153 0 -5 -9 -28 -19 -50 -37 -80 -26 -86 30 -17 21 26 45 51 52 55
7 5 10 13 7 19 -4 6 -3 8 4 4 5 -3 31 10 56 29 25 19 46 32 46 28 0 -3 8 0 18
8 19 16 53 36 97 58 17 8 32 18 35 22 3 4 55 30 115 59 61 28 136 64 167 79
39 18 53 22 43 11 -8 -9 -12 -20 -8 -23 3 -4 1 -7 -6 -7 -15 0 -71 -54 -71
-69 0 -5 -5 -13 -12 -17 -7 -5 -9 -2 -4 7 4 8 0 5 -8 -6 -9 -11 -24 -29 -34
-40 -11 -11 -25 -31 -32 -45 -7 -13 -19 -31 -27 -38 -7 -8 -11 -18 -8 -23 4
-5 2 -9 -4 -9 -9 0 -71 -84 -71 -97 0 -4 -6 -14 -14 -22 -8 -9 -16 -23 -18
-31 -2 -8 -11 -23 -20 -34 -10 -11 -18 -26 -18 -33 0 -7 -5 -13 -12 -13 -6 0
-8 -3 -5 -6 3 -4 -3 -18 -13 -32 -11 -13 -20 -31 -20 -38 0 -8 -5 -14 -11 -14
-5 0 -8 -4 -4 -9 3 -5 1 -12 -4 -16 -5 -3 -22 -31 -37 -63 -15 -31 -38 -74
-51 -94 -13 -21 -20 -38 -16 -38 5 0 3 -4 -2 -8 -14 -9 -58 -72 -51 -72 3 0
-6 -12 -19 -26 -14 -15 -22 -31 -18 -37 3 -6 1 -7 -5 -3 -6 3 -15 -1 -21 -11
-5 -10 -41 -49 -79 -88 -39 -38 -68 -73 -65 -77 2 -5 1 -8 -4 -7 -20 3 -34 -2
-28 -11 3 -5 2 -10 -4 -10 -12 0 -64 -47 -183 -162 -77 -75 -80 -80 -74 -113
4 -19 13 -38 21 -42 7 -5 14 -12 15 -18 4 -21 89 -167 102 -176 5 -3 9 -9 9
-13 -2 -12 30 -66 39 -66 6 0 10 -9 10 -20 0 -11 9 -29 19 -39 11 -11 17 -22
14 -25 -3 -3 2 -8 11 -12 9 -3 13 -10 10 -15 -3 -5 0 -9 5 -9 6 0 11 -5 11
-12 0 -7 12 -23 27 -35 14 -13 23 -23 19 -23 -4 0 -1 -6 6 -14 7 -8 27 -31 43
-52 46 -58 88 -99 98 -96 5 1 6 -2 3 -6 -7 -12 28 -44 38 -35 4 4 4 -1 0 -11
-5 -14 -4 -17 4 -12 7 4 12 2 12 -4 0 -6 38 -50 85 -98 250 -254 309 -311 318
-305 6 3 7 1 3 -5 -7 -12 70 -79 86 -74 5 1 7 -2 3 -8 -3 -5 5 -15 19 -22 14
-6 26 -15 26 -20 0 -4 6 -8 14 -8 7 0 27 -14 44 -31 20 -20 35 -28 44 -23 7 4
10 4 6 -1 -8 -8 -4 -12 55 -63 21 -18 43 -29 49 -26 6 4 8 3 5 -3 -3 -5 14
-22 38 -38 25 -15 45 -32 45 -36 0 -5 9 -9 20 -9 11 0 20 -3 20 -8 0 -10 66
-45 85 -45 8 0 15 -4 15 -9 0 -4 9 -8 20 -8 11 0 20 -4 20 -8 0 -4 21 -14 48
-21 26 -8 52 -17 57 -22 6 -4 23 -9 37 -11 15 -2 30 -7 34 -11 4 -4 18 -7 30
-7 13 0 26 -5 29 -11 4 -6 14 -8 22 -5 10 4 13 0 11 -11 -3 -17 -87 -65 -100
-57 -5 3 -11 -2 -14 -10 -3 -9 -10 -14 -14 -11 -4 3 -27 -2 -50 -10 -23 -8
-47 -12 -53 -8 -6 4 -7 1 -3 -6 5 -8 3 -11 -5 -10 -12 2 -87 -12 -149 -28 -8
-3 -24 -6 -35 -7 -30 -4 -30 -34 -1 -57 14 -11 32 -27 40 -34 7 -8 29 -23 47
-33 19 -11 58 -33 87 -50 28 -17 52 -29 52 -26 0 4 7 1 15 -6 8 -6 20 -8 26
-4 8 4 9 3 5 -4 -6 -11 12 -17 37 -13 4 0 7 -4 7 -11 0 -6 3 -9 6 -6 3 4 22 0
42 -9 20 -8 43 -16 51 -18 9 -2 54 -15 101 -30 47 -15 90 -28 95 -30 6 -1 17
-5 25 -8 8 -3 26 -8 40 -10 14 -3 36 -8 50 -11 14 -4 39 -8 56 -10 17 -2 35
-6 40 -9 6 -3 28 -8 49 -11 22 -3 52 -8 67 -11 16 -3 43 -8 60 -11 18 -2 44
-7 58 -9 28 -5 99 -13 173 -20 27 -3 53 -7 58 -10 5 -4 9 -1 9 5 0 6 5 8 12 4
13 -8 208 -12 208 -4 0 3 24 5 53 6 52 1 272 20 272 24 0 1 25 3 56 5 31 2 69
7 85 10 16 4 39 6 52 6 12 0 22 3 22 8 0 5 8 8 18 7 9 -2 48 6 87 17 38 11 74
20 80 22 5 1 21 6 35 12 61 26 113 42 121 37 5 -3 9 0 9 7 0 7 3 10 6 7 3 -3
33 1 67 9 34 7 87 18 117 22 81 13 199 50 247 78 45 26 88 26 141 -1 15 -7 33
-11 40 -9 7 3 20 2 30 -3 19 -8 29 -11 57 -17 11 -3 40 -11 65 -18 25 -7 54
-13 65 -14 11 0 25 -4 31 -8 6 -3 29 -9 50 -12 21 -2 48 -7 59 -9 104 -21 303
-26 470 -12 50 4 109 9 132 11 22 1 46 6 52 9 6 4 20 2 31 -4 11 -6 20 -7 20
-1 0 5 8 7 18 4 9 -2 38 1 62 7 25 6 52 11 60 12 8 0 29 4 47 9 17 6 44 12 60
15 24 4 58 14 113 32 8 2 26 6 39 8 13 2 31 6 40 10 9 4 23 8 31 10 8 2 16 8
18 14 2 5 7 8 12 5 7 -5 55 11 140 48 14 5 28 10 33 9 4 -1 7 2 7 7 0 5 11 12
25 15 14 4 25 11 25 16 0 5 6 7 13 4 8 -3 20 2 27 11 7 8 19 15 26 15 8 0 14
3 14 8 0 4 20 18 45 32 25 14 44 29 42 35 -2 6 -44 10 -98 11 -52 0 -101 4
-110 8 -9 4 -20 6 -25 5 -5 -1 -11 0 -14 1 -3 1 -14 4 -25 6 -33 8 -38 10 -85
31 -42 19 -78 35 -90 38 -3 0 -20 9 -38 18 -18 10 -37 15 -42 12 -6 -3 -10 -2
-10 4 0 6 -7 8 -15 4 -10 -3 -15 0 -13 8 2 8 -3 13 -9 12 -20 -4 -15 15 5 20
9 3 41 6 71 7 30 0 59 4 63 7 5 2 35 6 66 8 31 2 77 6 102 10 25 4 54 8 65 10
11 1 20 3 20 5 0 2 11 4 72 14 17 3 49 9 70 15 21 6 49 12 63 15 14 3 53 11
88 18 34 7 62 17 62 23 0 5 5 3 10 -5 6 -9 10 -11 10 -3 0 7 6 10 14 7 8 -3
17 0 21 5 3 6 10 9 15 6 4 -3 59 7 121 21 63 14 124 28 137 31 12 3 22 8 22
12 0 3 10 6 23 7 25 1 50 7 57 14 3 3 41 18 85 34 44 15 115 40 157 56 43 15
74 31 70 35 -4 4 0 5 8 4 14 -4 80 19 90 30 3 4 26 16 53 29 26 13 47 28 47
33 0 6 4 8 9 5 5 -3 31 9 58 27 26 17 69 43 96 57 26 14 47 28 47 32 0 5 7 8
15 8 8 0 15 5 15 10 0 6 7 10 15 10 8 0 15 4 15 9 0 5 8 12 18 15 9 3 35 23
57 43 22 20 42 36 45 36 3 -1 4 3 2 9 -1 5 2 7 8 3 5 -3 21 5 35 19 14 14 25
22 25 18 0 -3 14 8 30 26 17 18 30 30 30 25 0 -4 6 -1 13 8 7 8 20 18 30 22
10 4 15 12 12 17 -4 6 -3 9 2 8 13 -5 113 94 106 106 -3 6 -3 8 2 4 8 -8 21 5
65 62 14 18 31 39 37 46 10 10 3 22 -35 61 -47 47 -109 134 -133 186 -7 15
-16 27 -21 27 -4 0 -7 3 -6 8 1 4 -14 41 -34 82 -19 41 -43 96 -53 123 -10 26
-22 47 -26 47 -5 0 -8 3 -8 8 1 4 0 10 -1 15 -1 4 -3 10 -5 15 -2 7 -12 34
-39 102 -18 45 -28 72 -32 85 -1 6 -13 33 -25 60 -13 28 -23 54 -24 58 0 4 -6
12 -14 16 -7 5 -11 13 -8 18 3 5 0 20 -7 34 -6 13 -18 47 -26 74 -7 28 -17 56
-23 63 -5 6 -6 12 -3 12 4 0 2 9 -4 21 -7 11 -14 31 -16 44 -2 12 -12 40 -21
61 -9 22 -18 42 -19 47 -1 4 -3 9 -4 12 -1 3 -4 10 -5 15 -1 6 -3 11 -5 13 -1
1 -3 11 -5 21 -2 10 -10 23 -17 27 -7 5 -9 9 -4 9 4 0 1 11 -8 25 -9 14 -14
25 -10 25 3 0 -1 11 -10 25 -9 14 -14 25 -11 25 8 0 -54 122 -73 143 -8 9 -12
17 -8 17 4 0 -1 13 -11 30 -9 17 -21 30 -26 30 -4 0 -6 4 -2 9 3 5 -2 17 -11
25 -8 9 -13 16 -9 16 6 0 -44 91 -55 100 -4 3 -9 12 -13 20 -4 8 -20 38 -37
65 -16 28 -34 60 -39 73 -6 12 -15 22 -21 22 -5 0 -10 7 -10 15 0 7 -6 18 -13
22 -6 4 -18 20 -26 35 -8 15 -19 25 -24 21 -6 -3 -7 -2 -4 4 6 10 -76 141 -97
155 -30 20 17 4 83 -28 40 -19 82 -36 92 -37 11 -1 19 -4 19 -8 0 -6 41 -24
68 -30 4 -1 16 -8 27 -15 11 -8 30 -14 42 -14 13 0 23 -4 23 -8 0 -10 78 -46
97 -45 7 0 11 -3 8 -7 -3 -5 3 -11 14 -15 11 -3 22 -13 25 -21 3 -8 10 -13 15
-10 5 3 12 -1 15 -10 3 -8 10 -12 16 -9 5 3 10 1 10 -5 0 -6 4 -8 10 -5 6 3 7
-1 4 -9 -4 -11 0 -16 11 -16 9 0 13 -4 10 -10 -3 -5 1 -10 9 -10 9 0 16 9 16
20 0 11 -5 20 -11 20 -5 0 -7 5 -4 10 3 6 2 10 -2 10 -5 0 -9 8 -10 18 -1 9
-4 31 -8 47 -4 17 -8 36 -8 43 0 6 -4 12 -9 12 -4 0 -8 7 -8 15 0 25 -24 95
-33 95 -5 0 -6 4 -3 8 3 5 -1 20 -8 34 -8 14 -21 49 -31 77 -9 28 -21 51 -26
51 -6 0 -8 4 -4 9 3 5 0 15 -7 23 -7 7 -14 20 -16 28 -2 8 -8 18 -14 21 -5 3
-9 8 -8 10 3 8 -14 44 -24 51 -6 4 -11 11 -12 15 -2 21 -25 63 -34 63 -5 0
-10 8 -10 18 0 11 -9 27 -20 37 -11 10 -17 22 -14 26 3 5 -2 12 -10 15 -9 3
-14 10 -11 14 2 4 -6 19 -20 34 -13 14 -21 26 -18 26 3 0 -4 9 -17 20 -13 11
-19 20 -14 20 5 1 -2 10 -16 21 -14 12 -24 24 -24 28 3 12 -23 41 -30 33 -4
-4 -6 -2 -4 5 5 21 -154 198 -166 185 -4 -4 -6 -2 -5 3 5 15 -24 55 -40 55 -8
0 -12 3 -8 6 3 4 1 12 -6 19 -7 6 -23 27 -37 45 -14 18 -35 44 -48 59 -13 14
-30 36 -39 48 -8 13 -20 20 -26 16 -5 -3 -7 -2 -4 4 7 11 -28 45 -37 36 -3 -4
-6 1 -6 10 0 9 -4 17 -8 17 -4 0 -24 15 -44 33 -62 56 -88 77 -88 71 0 -3 -15
9 -32 25 -31 29 -41 35 -53 29 -2 -2 -12 7 -20 20 -9 12 -20 22 -26 22 -5 0
-28 13 -50 30 -23 16 -47 27 -53 23 -6 -3 -8 -3 -4 2 11 11 -29 38 -44 29 -6
-4 -8 -3 -5 3 6 9 -161 110 -175 105 -5 -1 -8 3 -8 9 0 5 -4 7 -10 4 -5 -3
-10 -3 -10 2 0 9 -47 32 -78 38 -12 2 -31 9 -44 16 -13 7 -24 12 -25 11 -3 -2
-26 5 -75 24 -21 8 -38 11 -38 8 0 -4 -6 -2 -13 4 -7 6 -24 12 -37 14 -14 2
-30 7 -36 11 -7 4 -30 8 -51 10 -22 2 -45 7 -51 11 -6 3 -31 8 -55 10 -25 2
-49 5 -53 8 -15 7 -235 2 -287 -7 -26 -4 -50 -11 -53 -16 -3 -5 -9 -9 -15 -9
-5 0 -3 16 6 36 8 19 14 38 13 42 -1 4 2 14 5 22 14 34 36 134 31 142 -3 4 -1
8 4 8 5 0 9 6 10 13 1 14 4 31 27 117 10 36 19 81 20 100 2 19 4 40 5 45 1 6
1 12 0 15 -1 3 -3 21 -5 40 -2 19 -4 36 -5 38 -3 2 -3 5 -13 55 -5 20 -11 37
-16 37 -4 0 -8 6 -8 13 0 18 -51 97 -63 97 -6 0 -10 5 -10 12 0 17 -163 168
-174 161 -5 -3 -6 -1 -3 4 4 6 0 16 -8 23 -8 7 -15 10 -15 7 0 -3 -11 5 -25
19 -14 14 -30 22 -37 18 -6 -4 -8 -3 -5 3 3 5 -7 17 -24 27 -16 9 -29 14 -29
11 0 -3 -10 3 -22 15 -12 11 -30 20 -40 20 -10 0 -18 4 -18 8 0 7 -63 35 -85
38 -5 0 -23 6 -39 13 -16 6 -36 13 -45 14 -9 2 -27 9 -40 16 -18 10 -22 10
-16 0 6 -8 4 -10 -6 -3 -16 10 -33 14 -69 19 -14 2 -26 4 -27 5 -2 2 -6 3 -10
4 -5 1 -17 5 -28 9 -11 3 -36 9 -55 11 -38 6 -75 14 -75 16 0 2 -79 13 -107
14 -16 0 -28 3 -28 6 0 9 -131 6 -178 -4z m-668 -609 c3 3 6 1 6 -5 0 -15 -38
-11 -45 5 -3 10 0 11 14 4 10 -6 21 -7 25 -4z m1566 -1667 c0 -5 -5 -10 -11
-10 -5 0 -7 5 -4 10 3 6 8 10 11 10 2 0 4 -4 4 -10z m-3 -49 c0 -11 -5 -18 -9
-15 -4 3 -5 11 -1 19 7 21 12 19 10 -4z m633 -861 c0 -4 -7 -7 -15 -6 -23 3
-26 12 -5 13 11 1 20 -2 20 -7z m-2780 -64 c0 -2 -7 -7 -16 -10 -8 -3 -12 -2
-9 4 6 10 25 14 25 6z m2700 -326 c0 -5 -10 -10 -22 -9 -22 0 -22 1 -3 9 11 5
21 9 23 9 1 1 2 -3 2 -9z m-5073 -88 c0 -10 -6 -19 -13 -19 -9 0 -9 5 -1 19 7
10 13 18 14 18 1 0 1 -8 0 -18z m2153 -2194 c0 -11 -12 -10 -30 2 -12 7 -10 9
8 7 12 0 22 -5 22 -9z"/>
</g>
</svg>
